<?xml version="1.0" encoding="UTF-8"?>
<svg version="1.1" xmlns="http://www.w3.org/2000/svg" width="441" height="440">
<path d="M0 0 C1.27126236 -0.00788544 1.27126236 -0.00788544 2.56820679 -0.01593018 C5.3754103 -0.0291539 8.18204831 -0.02038062 10.98925781 -0.01025391 C12.94118356 -0.01227471 14.89310857 -0.01518621 16.84503174 -0.01895142 C20.94070609 -0.02337861 25.03618436 -0.01693379 29.13183594 -0.00292969 C34.3719085 0.01411714 39.61151856 0.00435209 44.85157394 -0.01364708 C48.88543143 -0.02451291 52.91918023 -0.02102495 56.95304108 -0.0132637 C58.88427027 -0.01126708 60.81550945 -0.01370203 62.74672699 -0.02070236 C65.4538108 -0.02835779 68.16015823 -0.01665354 70.8671875 0 C71.66017242 -0.00607269 72.45315735 -0.01214539 73.27017212 -0.0184021 C80.6107665 0.06486843 85.77868012 2.02836239 91.11755371 7.33451843 C91.60630981 7.84078262 92.09506592 8.34704681 92.59863281 8.86865234 C93.39122498 9.66617668 93.39122498 9.66617668 94.1998291 10.47981262 C95.8736361 12.16924318 97.53278283 13.8723081 99.19238281 15.57568359 C100.30478779 16.69959844 101.41806268 17.82265299 102.53222656 18.94482422 C103.61763479 20.04367077 104.70229447 21.14325731 105.78613281 22.24365234 C106.27488892 22.73979538 106.76364502 23.23593842 107.26721191 23.74711609 C109.96736235 26.51986254 112.55391581 29.35978729 115.08300781 32.28979492 C118.66437412 36.41370062 122.46362813 40.27050031 126.34863281 44.10693359 C127.05459595 44.80911011 127.76055908 45.51128662 128.48791504 46.23474121 C130.72029639 48.45502962 132.95590393 50.67202314 135.19238281 52.88818359 C138.14328659 55.81227838 141.09071484 58.73981416 144.03613281 61.66943359 C144.69987915 62.32488159 145.36362549 62.98032959 146.04748535 63.65563965 C149.83101245 67.41956422 153.39515259 71.30086167 156.8821106 75.33969116 C162.43412063 81.62231011 168.47676602 87.47951672 174.3815918 93.42749023 C176.05784265 95.12044954 177.72868932 96.81877554 179.39428711 98.5222168 C181.80857914 100.99092207 184.23859143 103.44309164 186.67285156 105.89208984 C187.79012886 107.0433712 187.79012886 107.0433712 188.92997742 108.21791077 C189.62782852 108.91291183 190.32567963 109.6079129 191.04467773 110.32397461 C191.65421799 110.94160172 192.26375824 111.55922882 192.89176941 112.1955719 C194.60293035 113.61133567 194.60293035 113.61133567 196.60221863 113.14245605 C198.99121168 112.28034595 200.14813227 111.30484584 201.93562317 109.51243591 C202.55365311 108.89997513 203.17168304 108.28751434 203.80844116 107.65649414 C204.4750174 106.98070312 205.14159363 106.30491211 205.82836914 105.60864258 C206.53947342 104.89958267 207.2505777 104.19052277 207.98323059 103.4599762 C210.33761596 101.10860406 212.68106599 98.74664531 215.02441406 96.38427734 C216.66044235 94.74519054 218.29706283 93.10669464 219.93424988 91.46876526 C223.36936453 88.0290431 226.79950614 84.58446473 230.22583008 81.13598633 C234.60359217 76.73005318 238.98987891 72.33273712 243.37950611 67.9386282 C247.57679955 63.73615695 251.76940054 59.52901615 255.96191406 55.32177734 C256.75659403 54.52521666 257.55127399 53.72865597 258.37003517 52.90795708 C260.63869242 50.6323673 262.90394728 48.35344495 265.16821289 46.07348633 C265.82871643 45.41186493 266.48921997 44.75024353 267.16973877 44.068573 C270.97471089 40.22892043 274.60364216 36.28326678 278.12736893 32.183568 C280.57600593 29.37449089 283.16701985 26.71333157 285.78222656 24.06005859 C286.33044571 23.5037677 286.87866486 22.94747681 287.4434967 22.37432861 C288.59068813 21.21345525 289.7393343 20.05401775 290.8894043 18.89599609 C292.05242603 17.72139146 293.21095054 16.54231732 294.36499023 15.35888672 C296.05672987 13.62426061 297.76153961 11.90347308 299.46972656 10.18505859 C300.22792946 9.40059357 300.22792946 9.40059357 301.00144958 8.60028076 C306.54728813 3.08706513 312.33387414 -0.03876731 320.23901367 -0.14282227 C321.02840332 -0.1331543 321.81779297 -0.12348633 322.63110352 -0.11352539 C323.91309883 -0.12162987 323.91309883 -0.12162987 325.22099304 -0.12989807 C328.02041201 -0.14231451 330.81878869 -0.125949 333.61816406 -0.10791016 C335.57252557 -0.10806524 337.52688739 -0.10955573 339.48124695 -0.11231995 C343.5638906 -0.11370051 347.64618146 -0.10119759 351.72875977 -0.07836914 C356.96573926 -0.04989121 362.20213715 -0.05275191 367.43916035 -0.06545925 C371.46857187 -0.07240463 375.49784838 -0.06464179 379.52724266 -0.05220222 C381.45898102 -0.04768325 383.39073384 -0.04735481 385.32247353 -0.05126762 C388.01549822 -0.05417105 390.70771241 -0.03771825 393.40063477 -0.01586914 C394.20014557 -0.02037079 394.99965637 -0.02487244 395.82339478 -0.0295105 C401.21077096 0.04328538 401.21077096 0.04328538 403.39677203 1.6087532 C405.09909987 3.9467809 405.06829759 5.36636041 405.06990623 8.24674988 C405.07772948 9.25409085 405.08555272 10.26143183 405.09361303 11.29929829 C405.08692086 12.40910651 405.0802287 13.51891474 405.07333374 14.66235352 C405.07801371 15.83886317 405.08269368 17.01537283 405.08751547 18.22753429 C405.0974336 21.49873105 405.09383368 24.76959571 405.08455682 28.04078436 C405.0777861 31.56640262 405.0882377 35.091975 405.09649658 38.61758423 C405.10985732 45.52643157 405.1069458 52.43518131 405.09825866 59.34403253 C405.0914917 64.95750243 405.0905611 70.57094492 405.09383011 76.18441772 C405.09428981 76.98244912 405.09474951 77.78048052 405.09522314 78.60269469 C405.09618228 80.2237289 405.09715492 81.84476311 405.09814091 83.46579731 C405.10670166 98.67690174 405.09684995 113.88795199 405.08073981 129.09904754 C405.067336 142.15932056 405.0696639 155.21951359 405.08349609 168.27978516 C405.09953983 183.43534952 405.10587762 198.59086636 405.0966593 213.74643803 C405.09570363 215.3616085 405.09476051 216.97677898 405.09383011 218.59194946 C405.09336728 219.38670612 405.09290446 220.18146278 405.0924276 221.00030297 C405.08983409 226.60896803 405.09421648 232.21760302 405.10126877 237.82626343 C405.10967059 244.65858704 405.10743151 251.49080721 405.09142654 258.32311893 C405.08352595 261.81107831 405.08048239 265.29886505 405.09037399 268.78682327 C405.09851843 272.56272805 405.08835357 276.33814063 405.07333374 280.11401367 C405.08002591 281.2238219 405.08671807 282.33363012 405.09361303 283.4770689 C405.08578979 284.48440988 405.07796654 285.49175085 405.06990623 286.52961731 C405.06917565 287.8377827 405.06917565 287.8377827 405.0684303 289.17237568 C404.60732812 291.88935662 403.9017494 292.77767161 401.69238281 294.38818359 C398.54248047 294.7624054 398.54248047 294.7624054 394.60644531 294.76049805 C393.88906189 294.76414871 393.17167847 294.76779938 392.43255615 294.77156067 C390.06059109 294.77966844 387.68930871 294.76605476 385.31738281 294.75146484 C383.66975912 294.75094626 382.0221348 294.75146389 380.37451172 294.75297546 C376.92113002 294.75288573 373.46798172 294.7424542 370.01464844 294.72436523 C365.58584801 294.70167796 361.15738868 294.70113382 356.72854614 294.70788288 C353.32622236 294.7112228 349.92397649 294.70459235 346.52166748 294.69475365 C344.8885743 294.69090175 343.25547245 294.68975339 341.62237549 294.69133949 C339.34085551 294.69170995 337.05977442 294.6790958 334.77832031 294.6628418 C333.47942871 294.65823441 332.18053711 294.65362701 330.84228516 294.64888 C327.69238281 294.38818359 327.69238281 294.38818359 324.69238281 292.38818359 C324.30762196 289.6378479 324.30762196 289.6378479 324.2936554 286.05859375 C324.28700857 285.40144347 324.28036174 284.74429319 324.2735135 284.06722927 C324.25478707 281.85374632 324.25749541 279.64079948 324.26000977 277.42724609 C324.25099619 275.84353365 324.24066997 274.25982822 324.22912598 272.6761322 C324.201422 268.35850874 324.19224885 264.04101708 324.18627191 259.72331619 C324.17688259 255.18569004 324.15065957 250.64816153 324.12626648 246.1105957 C324.08247043 237.48245195 324.05402522 228.85432697 324.0309431 220.22610569 C324.00419918 210.51348121 323.9601243 200.80096137 323.91465437 191.08840942 C323.7757617 161.18846695 323.66209651 131.28849694 323.69238281 101.38818359 C319.887909 102.96094014 317.50407624 105.34509374 314.62687683 108.2535553 C313.88186864 109.00235031 313.88186864 109.00235031 313.12180978 109.76627249 C311.45979923 111.43903245 309.80506751 113.11881203 308.15014648 114.79858398 C306.95943455 115.99968331 305.76823476 117.20029916 304.57658386 118.40046692 C302.01157246 120.98535635 299.44950737 123.57311918 296.88951683 126.16298103 C292.84085507 130.25776553 288.7824417 134.34278849 284.72200012 138.42588806 C273.17704939 150.03771132 261.64037976 161.65767103 250.12475586 173.29858398 C243.76440917 179.72796603 237.39341059 186.1465892 231.01034147 192.55341524 C227.63326411 195.94403833 224.26210496 199.34012562 220.90413475 202.74968147 C217.74613467 205.95619443 214.57452534 209.14858059 211.39193916 212.33068657 C210.22691145 213.50055759 209.06703705 214.67558691 207.91278839 215.85609436 C206.33504207 217.46821889 204.73976482 219.06073456 203.13883972 220.64979553 C202.25081759 221.54594605 201.36279547 222.44209658 200.44786358 223.36540318 C197.12414911 225.80532024 194.77624558 226.21212531 190.69238281 226.38818359 C188.70043945 225.3918457 188.70043945 225.3918457 187.04003906 223.72802734 C186.37117676 223.07817871 185.70231445 222.42833008 185.01318359 221.75878906 C184.24731934 220.97648926 183.48145508 220.19418945 182.69238281 219.38818359 C181.73986346 218.453939 180.78513448 217.52194377 179.82861328 216.59179688 C177.12809674 213.95534359 174.45577036 211.292176 171.79223633 208.6184082 C170.13310961 206.95392082 168.4687023 205.29484913 166.80371094 203.63623047 C165.72331209 202.55517069 164.64322356 201.47380068 163.56347656 200.39208984 C163.07785751 199.90849503 162.59223846 199.42490021 162.09190369 198.926651 C159.47968167 196.29706355 156.99743077 193.60114475 154.58924866 190.7830658 C150.39128162 185.97148953 145.90735054 181.47774209 141.37988281 176.97802734 C139.9882337 175.58861974 138.59658472 174.19921199 137.2049408 172.80979919 C135.72351638 171.33172393 134.24085058 169.85490457 132.7578125 168.37844849 C129.652478 165.28675308 126.55106567 162.19114258 123.45019531 159.0949707 C116.86723106 152.5230587 110.28003559 145.95539532 103.69238281 139.38818359 C96.57792405 132.29580052 89.46422121 125.20266878 82.35540771 118.10462666 C79.27955361 115.03372221 76.20128629 111.96526468 73.12107849 108.89872742 C71.6638332 107.4471783 70.20776352 105.9944619 68.75219727 104.54122925 C66.98703002 102.77890512 65.22008805 101.01835581 63.45092773 99.26004028 C59.22818025 95.0376694 55.18679509 90.73482828 51.2920742 86.20882797 C48.89379464 83.47929262 46.33039896 80.94034264 43.72875977 78.40625 C42.58962448 77.2867539 41.45048978 76.16725721 40.31135559 75.04776001 C39.71966898 74.4683025 39.12798237 73.88884499 38.51836586 73.29182816 C35.33965239 70.17472693 32.17675115 67.04161577 29.01074219 63.91162109 C25.00277189 59.95151097 20.99040735 55.99614147 16.96264648 52.05615234 C13.68647175 48.85054916 10.42542496 45.6302132 7.17369652 42.39982224 C5.94042211 41.18005308 4.7017767 39.96568766 3.45751381 38.75712967 C-4.35691246 31.16101934 -10.38953593 24.66777275 -11.80371094 13.45458984 C-11.784375 12.29830078 -11.76503906 11.14201172 -11.74511719 9.95068359 C-11.74382813 8.77634766 -11.74253906 7.60201172 -11.74121094 6.39208984 C-11.30761719 3.38818359 -11.30761719 3.38818359 -10.29974365 1.72470093 C-7.119074 -0.40920985 -3.70251648 -0.02806735 0 0 Z " fill="#000000" transform="translate(24.3076171875,73.61181640625)"/>
<path d="M0 0 C4.40441976 0.68210635 6.51727382 3.41583519 9.56339645 6.52094555 C10.22441494 7.17486965 10.88543343 7.82879375 11.56648278 8.50253373 C13.78563204 10.70403497 15.98641688 12.92302936 18.18772507 15.14235973 C19.77198313 16.72148162 21.35731116 18.29953067 22.94363022 19.87658215 C27.25453334 24.16892439 31.54949368 28.47690068 35.84129238 32.78833461 C40.32940163 37.29279411 44.83006179 41.7846826 49.32889938 46.27842236 C56.88329186 53.8282896 64.42745539 61.38824939 71.9655571 68.95437145 C79.72248814 76.74013592 87.49020263 84.51494068 95.26926804 92.2785902 C104.64089809 101.6316738 114.00234268 110.99483816 123.35518265 120.36671925 C126.92884235 123.9472603 130.50643723 127.52380066 134.08722305 131.0972147 C138.30213004 135.30447279 142.50705158 139.52146174 146.7043972 143.74623775 C148.24854681 145.29728703 149.79612544 146.844931 151.34731483 148.38893986 C153.46021632 150.49318382 155.56046347 152.60928974 157.65787888 154.72895336 C158.27799811 155.34083183 158.89811735 155.9527103 159.53702807 156.58313054 C164.88151082 162.03309937 164.88151082 162.03309937 164.85667038 166.44240856 C162.06366684 169.23541211 160.36303589 168.69638699 156.44823837 168.70310497 C155.78302719 168.70693052 155.117816 168.71075607 154.4324469 168.71469754 C152.19299742 168.72505493 149.95380304 168.72103031 147.7143364 168.71706676 C146.11301561 168.72141174 144.51169691 168.72659417 142.91038132 168.73255444 C138.55297596 168.74597896 134.19565715 168.74651927 129.83823514 168.74399114 C126.20486051 168.74292373 122.57150356 168.74779887 118.9381327 168.75259656 C110.36856614 168.76370374 101.7990434 168.76412239 93.22947311 168.75808239 C84.37940899 168.75204074 75.52950378 168.76435567 66.67946678 168.78565246 C59.08962314 168.8032473 51.49983018 168.80927316 43.90996689 168.80601472 C39.37315583 168.80419829 34.83645811 168.80687369 30.29966545 168.82072926 C26.03397351 168.83326861 21.76852991 168.83140065 17.50284195 168.81831837 C15.93508128 168.81594448 14.36730334 168.81871618 12.79956245 168.82694149 C10.66344543 168.83734275 8.52817198 168.82936288 6.39208603 168.81663036 C4.59710348 168.81688198 4.59710348 168.81688198 2.76585865 168.81713867 C-0.14332962 168.44240856 -0.14332962 168.44240856 -2.02882481 167.33027649 C-3.70438964 164.49202485 -3.51481448 162.14337653 -3.5108223 158.86229992 C-3.51409114 158.19073962 -3.51735998 157.51917933 -3.52072787 156.82726872 C-3.52802305 154.57228882 -3.51383845 152.31795447 -3.49977493 150.06301403 C-3.50056559 148.44844992 -3.50266219 146.83388599 -3.50597 145.21932507 C-3.51111071 140.83105526 -3.49755627 136.44301934 -3.480443 132.05478716 C-3.4654297 127.46949195 -3.4665816 122.88420006 -3.46577835 118.29888439 C-3.46208417 110.60010301 -3.44710772 102.9014107 -3.42457962 95.20266247 C-3.39568487 85.30774284 -3.38535488 75.4128949 -3.38089752 65.51793766 C-3.37692336 57.0254527 -3.36442176 48.53298345 -3.35055065 40.0405097 C-3.34644502 37.30319822 -3.34352281 34.56588731 -3.34075546 31.82857418 C-3.33587516 27.53585191 -3.32569336 23.24317349 -3.31131744 18.95047283 C-3.30678119 17.3705882 -3.30395266 15.79069765 -3.30290985 14.21080685 C-3.30117376 12.06334329 -3.29331658 9.91599084 -3.28377151 7.76854992 C-3.27930952 5.9616887 -3.27930952 5.9616887 -3.27475739 4.11832523 C-3.10395331 0.64069264 -3.10395331 0.64069264 0 0 Z " fill="#000000" transform="translate(15.143329620361328,199.55759143829346)"/>
</svg>
